Coordinates
version=1
nRows=26
nColumns=22
inDegrees=yes

Units are S.I. units (second, meters, Newtons, ...)
If the header above contains a line with 'inDegrees', this indicates whether rotational values are in degrees (yes) or radians (no).

endheader
time	pelvis_tilt	pelvis_list	pelvis_rotation	pelvis_tx	pelvis_ty	pelvis_tz	hip_flexion_r	hip_adduction_r	hip_rotation_r	knee_angle_r	ankle_angle_r	subtalar_angle_r	hip_flexion_l	hip_adduction_l	hip_rotation_l	knee_angle_l	ankle_angle_l	subtalar_angle_l	lumbar_extension	lumbar_bending	lumbar_rotation
      4.11000000	      0.36863415	      1.74916373	    121.96571378	      0.73888316	      0.92259934	     -0.24810039	     27.13174034	      2.58779959	     12.44521434	    -15.74362506	     10.16550173	     11.31877971	     -8.15076902	     10.47838130	     24.78736964	    -17.26409519	     14.33921632	    -17.09640638	     -4.59044220	      2.01311428	    -14.83983395
      4.12000000	      0.38662398	      1.67534900	    122.56650389	      0.73446382	      0.92128818	     -0.25531164	     27.06192908	      2.66161997	     12.69773412	    -14.77655341	      9.97116928	     11.63925922	     -8.67881188	     10.35918908	     25.18404197	    -17.28740102	     14.49751090	    -17.15563398	     -4.54139340	      2.01447784	    -14.90327126
      4.13000000	      0.38776598	      1.59959881	    123.16951336	      0.72991689	      0.92004933	     -0.26258184	     27.05561252	      2.72775107	     12.83422504	    -14.27500906	      9.81376459	     11.78487037	     -9.21854123	     10.24865135	     25.58337562	    -17.31087957	     14.61395524	    -17.19158801	     -4.49422333	      2.00746154	    -15.01477391
      4.14000000	      0.39045373	      1.56437127	    123.78936918	      0.72521076	      0.91894880	     -0.26987685	     27.07084878	      2.81790428	     12.83733698	    -14.20669840	      9.69355645	     11.75706976	     -9.76390001	     10.11947309	     26.00034166	    -17.40589382	     14.66431669	    -17.18969217	     -4.48689464	      2.03933876	    -15.12823938
      4.15000000	      0.39645700	      1.55853073	    124.40467707	      0.72035006	      0.91800437	     -0.27724962	     27.10257931	      2.94059860	     12.77001771	    -14.52041203	      9.50153589	     11.33633014	    -10.31631483	      9.97132911	     26.41205737	    -17.54151932	     14.68306297	    -17.11426126	     -4.49630003	      2.10652838	    -15.24265717
      4.16000000	      0.44145207	      1.52147299	    125.03050507	      0.71530184	      0.91712123	     -0.28463485	     27.21818656	      3.07827792	     12.66812972	    -15.15866827	      9.22694731	     10.71473499	    -10.75865501	      9.82881658	     26.82764793	    -17.79560214	     14.63797155	    -16.96917918	     -4.44159117	      2.21172453	    -15.38799988
      4.17000000	      0.51477237	      1.49092659	    125.64249118	      0.71006112	      0.91638509	     -0.29206562	     27.34853174	      3.24777943	     12.59955260	    -16.02154604	      8.83598480	      9.97898276	    -11.12501434	      9.68529732	     27.20090607	    -18.17107489	     14.52734031	    -16.72899099	     -4.36204297	      2.36957593	    -15.52382497
      4.18000000	      0.62727626	      1.46342202	    126.23969667	      0.70462064	      0.91580482	     -0.29952562	     27.48375351	      3.44901858	     12.57563546	    -17.01104193	      8.31776776	      9.22709682	    -11.38001226	      9.54754017	     27.52061713	    -18.71497484	     14.35038177	    -16.37249862	     -4.24720417	      2.59063751	    -15.64686342
      4.19000000	      0.78641982	      1.44439210	    126.80384503	      0.69897870	      0.91541666	     -0.30702517	     27.60115110	      3.69338765	     12.63460160	    -18.03156068	      7.66048376	      8.52408684	    -11.50560647	      9.41419724	     27.72870649	    -19.44527546	     14.07138637	    -15.84574807	     -4.09398500	      2.88776737	    -15.74611017
      4.20000000	      0.99284214	      1.44043319	    127.32618140	      0.69313936	      0.91523071	     -0.31456531	     27.70075219	      3.98100113	     12.74345372	    -19.04427143	      6.91789006	      8.02438482	    -11.48610308	      9.28954614	     27.79221521	    -20.39228895	     13.71391124	    -15.14618131	     -3.90637623	      3.26381866	    -15.82236379
      4.21000000	      1.22063580	      1.45383819	    127.79748051	      0.68708525	      0.91529965	     -0.32212147	     27.75079331	      4.28359756	     12.89206546	    -19.99641275	      6.16357205	      7.71821565	    -11.31860394	      9.20179863	     27.68528450	    -21.57994706	     13.21285365	    -14.13659350	     -3.70775162	      3.69647547	    -15.82370683
      4.22000000	      1.47126218	      1.49208627	    128.22484679	      0.68080594	      0.91563342	     -0.32968876	     27.74909400	      4.59254826	     13.03041554	    -20.88000520	      5.43628611	      7.69899866	    -11.00127174	      9.13565477	     27.39278976	    -23.00360139	     12.58904774	    -12.73669273	     -3.50048260	      4.19083675	    -15.77003057
      4.23000000	      1.71201231	      1.54396155	    128.61124135	      0.67434624	      0.91620480	     -0.33719808	     27.70125113	      4.86591857	     13.12463107	    -21.71425219	      4.80102000	      7.97890587	    -10.50086484	      9.11989460	     26.83772283	    -24.71037610	     11.84246402	    -10.95877677	     -3.31015007	      4.70478902	    -15.66936713
      4.24000000	      1.91664952	      1.61266500	    128.97204354	      0.66778378	      0.91700416	     -0.34460378	     27.58487710	      5.08040908	     13.16658628	    -22.48809878	      4.26944852	      8.46363856	     -9.81087183	      9.14942808	     25.98864071	    -26.71152668	     10.99723915	     -8.75028162	     -3.16889606	      5.20663598	    -15.54180695
      4.25000000	      2.07149732	      1.71278581	    129.35770439	      0.66109655	      0.91806273	     -0.35188636	     27.35369618	      5.20319590	     13.04843435	    -23.15726456	      3.92939863	      9.09456735	     -8.97461286	      9.19054471	     24.95419391	    -28.95181773	      9.99074189	     -5.90548157	     -3.09195355	      5.68267359	    -15.36301474
      4.26000000	      2.16014269	      1.84158181	    129.78386813	      0.65449064	      0.91930015	     -0.35894616	     27.01235262	      5.23807986	     12.81788801	    -23.72565248	      3.68660114	      9.71233986	     -7.93873341	      9.22345244	     23.64225673	    -31.48992696	      8.94137093	     -2.56795460	     -3.11412062	      6.10310124	    -15.21289110
      4.27000000	      2.22189429	      1.96299036	    130.26960047	      0.64804324	      0.92055989	     -0.36576726	     26.63237110	      5.19348198	     12.41845483	    -24.21410150	      3.62537225	     10.17980497	     -6.63620628	      9.20370920	     22.07724448	    -34.32185641	      7.88412352	      1.20077177	     -3.17199048	      6.46332598	    -15.05703447
      4.28000000	      2.26505004	      2.11378758	    130.81508587	      0.64182498	      0.92184657	     -0.37235703	     26.18063013	      5.11074783	     11.86168215	    -24.60303184	      3.68505690	     10.44143798	     -5.10917023	      9.06091514	     20.29472761	    -37.40149091	      6.89163295	      5.28320527	     -3.29447744	      6.79258135	    -14.89120288
      4.29000000	      2.32057057	      2.27302455	    131.41238344	      0.63589235	      0.92306565	     -0.37873746	     25.70201599	      5.01601444	     11.17503038	    -24.90454179	      3.87872416	     10.43881406	     -3.34212383	      8.76123765	     18.35814104	    -40.68782843	      5.98255499	      9.38291771	     -3.43523902	      7.09666695	    -14.71812157
      4.30000000	      2.38943905	      2.47819526	    132.03382109	      0.63024789	      0.92425141	     -0.38495750	     25.16368582	      4.95118003	     10.38191217	    -25.11396500	      4.15017617	     10.17144914	     -1.41668178	      8.26327048	     16.32813932	    -44.09926959	      5.18843802	     13.18534163	     -3.62434249	      7.41039350	    -14.50686826
      4.31000000	      2.46862380	      2.74587337	    132.64781935	      0.62487679	      0.92543148	     -0.39108512	     24.55000158	      4.94253207	      9.51174766	    -25.23366378	      4.46674361	      9.69228850	      0.59396197	      7.55857859	     14.27106356	    -47.55383790	      4.51603958	     16.34872220	     -3.87050770	      7.74538285	    -14.21563923
      4.32000000	      2.57412848	      2.98180630	    133.24307430	      0.61977561	      0.92646230	     -0.39711752	     23.96625718	      4.95749515	      8.66792306	    -25.30621613	      4.90483660	      9.12197917	      2.74231681	      6.72604683	     12.26082688	    -50.99840618	      3.88802585	     18.47901652	     -4.07475245	      8.04810944	    -13.90328553
      4.33000000	      2.67723198	      3.26356782	    133.78387695	      0.61488628	      0.92751990	     -0.40313028	     23.31427033	      5.03489519	      7.84119558	    -25.30064899	      5.31837642	      8.61750133	      4.87997049	      5.74354352	     10.31882551	    -54.33754171	      3.39992428	     19.56971980	     -4.32517636	      8.35989430	    -13.48697162
      4.34000000	      2.75946297	      3.57169421	    134.26031275	      0.61016904	      0.92863217	     -0.40914143	     22.60043068	      5.15959174	      7.09107767	    -25.23167346	      5.69332396	      8.28396130	      6.96816660	      4.66250802	      8.47672864	    -57.50685165	      3.07693450	     19.73573807	     -4.61683281	      8.65401177	    -12.97178419
      4.35000000	      2.83875215	      3.82321439	    134.67863535	      0.60560816	      0.92968710	     -0.41510977	     21.91919362	      5.29593303	      6.49824386	    -25.13809363	      6.08747367	      7.97356712	      9.07687499	      3.56080079	      6.75510538	    -60.48645028	      2.87603056	     19.14867783	     -4.86364877	      8.88713681	    -12.43244986
      4.36000000	      2.88963556	      4.05292717	    135.03476318	      0.60110681	      0.93079501	     -0.42103673	     21.22228593	      5.43626307	      6.01912497	    -25.01681114	      6.44899752	      7.79632553	     11.11750056	      2.45805623	      5.15079620	    -63.21061862	      2.77309199	     17.73089536	     -5.11258069	      9.07266390	    -11.82237979
